<mxfile host="www.draw.io" modified="2019-12-16T07:17:29.450Z" agent="Mozilla/5.0 (Windows NT 10.0; Win64; x64) AppleWebKit/537.36 (KHTML, like Gecko) Chrome/78.0.3904.108 Safari/537.36 OPR/65.0.3467.72" etag="nWYoWtTsWKVdiUILmVo6" version="12.4.2" type="github" pages="1">
  <diagram id="KgouGHTUGytn4UWCruJQ" name="Page-1">
    <mxGraphModel dx="5310" dy="2915" grid="1" gridSize="10" guides="1" tooltips="1" connect="1" arrows="1" fold="1" page="1" pageScale="1" pageWidth="10000" pageHeight="10000" math="0" shadow="0">
      <root>
        <mxCell id="0"/>
        <mxCell id="1" parent="0"/>
        <mxCell id="XMLvKD6NTCS2bfs8ey_3-3" value="Троеточие&lt;br&gt;" style="edgeStyle=orthogonalEdgeStyle;rounded=0;orthogonalLoop=1;jettySize=auto;html=1;entryX=0.5;entryY=0;entryDx=0;entryDy=0;" parent="1" source="XMLvKD6NTCS2bfs8ey_3-1" target="XMLvKD6NTCS2bfs8ey_3-2" edge="1">
          <mxGeometry relative="1" as="geometry"/>
        </mxCell>
        <mxCell id="XMLvKD6NTCS2bfs8ey_3-1" value="Главное меню" style="rounded=0;whiteSpace=wrap;html=1;" parent="1" vertex="1">
          <mxGeometry x="10" y="20" width="150" height="40" as="geometry"/>
        </mxCell>
        <mxCell id="XMLvKD6NTCS2bfs8ey_3-13" style="edgeStyle=orthogonalEdgeStyle;rounded=0;orthogonalLoop=1;jettySize=auto;html=1;entryX=0.5;entryY=0;entryDx=0;entryDy=0;" parent="1" source="XMLvKD6NTCS2bfs8ey_3-2" target="XMLvKD6NTCS2bfs8ey_3-9" edge="1">
          <mxGeometry relative="1" as="geometry"/>
        </mxCell>
        <mxCell id="XMLvKD6NTCS2bfs8ey_3-19" style="edgeStyle=orthogonalEdgeStyle;rounded=0;orthogonalLoop=1;jettySize=auto;html=1;entryX=0.5;entryY=0;entryDx=0;entryDy=0;exitX=1;exitY=0.5;exitDx=0;exitDy=0;" parent="1" source="XMLvKD6NTCS2bfs8ey_3-2" target="XMLvKD6NTCS2bfs8ey_3-11" edge="1">
          <mxGeometry relative="1" as="geometry">
            <mxPoint x="2030" y="100" as="sourcePoint"/>
          </mxGeometry>
        </mxCell>
        <mxCell id="XMLvKD6NTCS2bfs8ey_3-2" value="Редактор сценариев&lt;br&gt;" style="rounded=0;whiteSpace=wrap;html=1;" parent="1" vertex="1">
          <mxGeometry x="2700" y="70" width="150" height="40" as="geometry"/>
        </mxCell>
        <mxCell id="XMLvKD6NTCS2bfs8ey_3-21" style="edgeStyle=orthogonalEdgeStyle;rounded=0;orthogonalLoop=1;jettySize=auto;html=1;entryX=0.5;entryY=0;entryDx=0;entryDy=0;" parent="1" source="XMLvKD6NTCS2bfs8ey_3-29" target="XMLvKD6NTCS2bfs8ey_3-20" edge="1">
          <mxGeometry relative="1" as="geometry"/>
        </mxCell>
        <mxCell id="XMLvKD6NTCS2bfs8ey_3-32" style="edgeStyle=orthogonalEdgeStyle;rounded=0;orthogonalLoop=1;jettySize=auto;html=1;" parent="1" source="XMLvKD6NTCS2bfs8ey_3-4" target="XMLvKD6NTCS2bfs8ey_3-31" edge="1">
          <mxGeometry relative="1" as="geometry">
            <Array as="points">
              <mxPoint x="770" y="210"/>
            </Array>
          </mxGeometry>
        </mxCell>
        <mxCell id="XMLvKD6NTCS2bfs8ey_3-4" value="Воздушная обстановка" style="rounded=0;whiteSpace=wrap;html=1;" parent="1" vertex="1">
          <mxGeometry x="520" y="180" width="120" height="60" as="geometry"/>
        </mxCell>
        <mxCell id="XMLvKD6NTCS2bfs8ey_3-5" value="Наземная обстановка" style="rounded=0;whiteSpace=wrap;html=1;" parent="1" vertex="1">
          <mxGeometry x="1490" y="200" width="120" height="60" as="geometry"/>
        </mxCell>
        <mxCell id="XMLvKD6NTCS2bfs8ey_3-14" style="edgeStyle=orthogonalEdgeStyle;rounded=0;orthogonalLoop=1;jettySize=auto;html=1;entryX=0.5;entryY=0;entryDx=0;entryDy=0;" parent="1" source="XMLvKD6NTCS2bfs8ey_3-9" target="XMLvKD6NTCS2bfs8ey_3-4" edge="1">
          <mxGeometry relative="1" as="geometry"/>
        </mxCell>
        <mxCell id="XMLvKD6NTCS2bfs8ey_3-17" style="edgeStyle=orthogonalEdgeStyle;rounded=0;orthogonalLoop=1;jettySize=auto;html=1;entryX=0.5;entryY=0;entryDx=0;entryDy=0;" parent="1" source="XMLvKD6NTCS2bfs8ey_3-9" target="XMLvKD6NTCS2bfs8ey_3-5" edge="1">
          <mxGeometry relative="1" as="geometry"/>
        </mxCell>
        <mxCell id="XMLvKD6NTCS2bfs8ey_3-9" value="Создание сценария" style="rounded=0;whiteSpace=wrap;html=1;" parent="1" vertex="1">
          <mxGeometry x="980" y="130" width="120" height="60" as="geometry"/>
        </mxCell>
        <mxCell id="XMLvKD6NTCS2bfs8ey_3-11" value="Редактирование существующего сценария" style="rounded=0;whiteSpace=wrap;html=1;" parent="1" vertex="1">
          <mxGeometry x="4294" y="148.86" width="120" height="60" as="geometry"/>
        </mxCell>
        <mxCell id="XMLvKD6NTCS2bfs8ey_3-26" style="edgeStyle=orthogonalEdgeStyle;rounded=0;orthogonalLoop=1;jettySize=auto;html=1;entryX=0.5;entryY=0;entryDx=0;entryDy=0;" parent="1" source="XMLvKD6NTCS2bfs8ey_3-20" target="XMLvKD6NTCS2bfs8ey_3-24" edge="1">
          <mxGeometry relative="1" as="geometry"/>
        </mxCell>
        <mxCell id="XMLvKD6NTCS2bfs8ey_3-20" value="Добавить трассу" style="rounded=0;whiteSpace=wrap;html=1;" parent="1" vertex="1">
          <mxGeometry x="270" y="370" width="120" height="60" as="geometry"/>
        </mxCell>
        <mxCell id="XMLvKD6NTCS2bfs8ey_3-51" style="edgeStyle=orthogonalEdgeStyle;rounded=0;orthogonalLoop=1;jettySize=auto;html=1;" parent="1" source="XMLvKD6NTCS2bfs8ey_3-24" target="XMLvKD6NTCS2bfs8ey_3-50" edge="1">
          <mxGeometry relative="1" as="geometry"/>
        </mxCell>
        <mxCell id="XMLvKD6NTCS2bfs8ey_3-24" value="Добавить летательный аппарат" style="rounded=0;whiteSpace=wrap;html=1;" parent="1" vertex="1">
          <mxGeometry x="270" y="520" width="120" height="60" as="geometry"/>
        </mxCell>
        <mxCell id="XMLvKD6NTCS2bfs8ey_3-28" style="edgeStyle=orthogonalEdgeStyle;rounded=0;orthogonalLoop=1;jettySize=auto;html=1;" parent="1" source="XMLvKD6NTCS2bfs8ey_3-24" target="XMLvKD6NTCS2bfs8ey_3-24" edge="1">
          <mxGeometry relative="1" as="geometry"/>
        </mxCell>
        <mxCell id="XMLvKD6NTCS2bfs8ey_3-29" value="Добавить актёров" style="rounded=1;whiteSpace=wrap;html=1;" parent="1" vertex="1">
          <mxGeometry x="270" y="240" width="120" height="60" as="geometry"/>
        </mxCell>
        <mxCell id="XMLvKD6NTCS2bfs8ey_3-30" style="edgeStyle=orthogonalEdgeStyle;rounded=0;orthogonalLoop=1;jettySize=auto;html=1;entryX=0.5;entryY=0;entryDx=0;entryDy=0;" parent="1" source="XMLvKD6NTCS2bfs8ey_3-4" target="XMLvKD6NTCS2bfs8ey_3-29" edge="1">
          <mxGeometry relative="1" as="geometry">
            <mxPoint x="520" y="210" as="sourcePoint"/>
            <mxPoint x="290" y="430" as="targetPoint"/>
          </mxGeometry>
        </mxCell>
        <mxCell id="XMLvKD6NTCS2bfs8ey_3-35" style="edgeStyle=orthogonalEdgeStyle;rounded=0;orthogonalLoop=1;jettySize=auto;html=1;" parent="1" source="XMLvKD6NTCS2bfs8ey_3-31" target="XMLvKD6NTCS2bfs8ey_3-33" edge="1">
          <mxGeometry relative="1" as="geometry">
            <Array as="points">
              <mxPoint x="690" y="270"/>
            </Array>
          </mxGeometry>
        </mxCell>
        <mxCell id="XMLvKD6NTCS2bfs8ey_3-36" style="edgeStyle=orthogonalEdgeStyle;rounded=0;orthogonalLoop=1;jettySize=auto;html=1;" parent="1" source="XMLvKD6NTCS2bfs8ey_3-31" target="XMLvKD6NTCS2bfs8ey_3-34" edge="1">
          <mxGeometry relative="1" as="geometry"/>
        </mxCell>
        <mxCell id="XMLvKD6NTCS2bfs8ey_3-39" style="edgeStyle=orthogonalEdgeStyle;rounded=0;orthogonalLoop=1;jettySize=auto;html=1;" parent="1" source="XMLvKD6NTCS2bfs8ey_3-31" target="XMLvKD6NTCS2bfs8ey_3-38" edge="1">
          <mxGeometry relative="1" as="geometry">
            <Array as="points">
              <mxPoint x="899" y="270"/>
            </Array>
          </mxGeometry>
        </mxCell>
        <mxCell id="XMLvKD6NTCS2bfs8ey_3-41" style="edgeStyle=orthogonalEdgeStyle;rounded=0;orthogonalLoop=1;jettySize=auto;html=1;" parent="1" source="XMLvKD6NTCS2bfs8ey_3-31" target="XMLvKD6NTCS2bfs8ey_3-40" edge="1">
          <mxGeometry relative="1" as="geometry"/>
        </mxCell>
        <mxCell id="XMLvKD6NTCS2bfs8ey_3-43" style="edgeStyle=orthogonalEdgeStyle;rounded=0;orthogonalLoop=1;jettySize=auto;html=1;" parent="1" source="XMLvKD6NTCS2bfs8ey_3-31" target="XMLvKD6NTCS2bfs8ey_3-42" edge="1">
          <mxGeometry relative="1" as="geometry"/>
        </mxCell>
        <mxCell id="XMLvKD6NTCS2bfs8ey_3-31" value="Редактировать актёров" style="rounded=1;whiteSpace=wrap;html=1;" parent="1" vertex="1">
          <mxGeometry x="740" y="240" width="120" height="60" as="geometry"/>
        </mxCell>
        <mxCell id="XMLvKD6NTCS2bfs8ey_3-33" value="Удалить трассу" style="rounded=0;whiteSpace=wrap;html=1;" parent="1" vertex="1">
          <mxGeometry x="630" y="370" width="120" height="60" as="geometry"/>
        </mxCell>
        <mxCell id="XMLvKD6NTCS2bfs8ey_3-34" value="Изменить лет. аппараты" style="rounded=0;whiteSpace=wrap;html=1;" parent="1" vertex="1">
          <mxGeometry x="980" y="370" width="120" height="60" as="geometry"/>
        </mxCell>
        <mxCell id="XMLvKD6NTCS2bfs8ey_3-38" value="Изменить трассу" style="rounded=0;whiteSpace=wrap;html=1;" parent="1" vertex="1">
          <mxGeometry x="850" y="370" width="120" height="60" as="geometry"/>
        </mxCell>
        <mxCell id="XMLvKD6NTCS2bfs8ey_3-40" value="Добавить лет. аппараты" style="rounded=0;whiteSpace=wrap;html=1;" parent="1" vertex="1">
          <mxGeometry x="1110" y="370" width="120" height="60" as="geometry"/>
        </mxCell>
        <mxCell id="XMLvKD6NTCS2bfs8ey_3-42" value="Удалить лет. аппараты" style="rounded=0;whiteSpace=wrap;html=1;" parent="1" vertex="1">
          <mxGeometry x="500" y="370" width="120" height="60" as="geometry"/>
        </mxCell>
        <mxCell id="XMLvKD6NTCS2bfs8ey_3-54" style="edgeStyle=orthogonalEdgeStyle;rounded=0;orthogonalLoop=1;jettySize=auto;html=1;" parent="1" source="XMLvKD6NTCS2bfs8ey_3-46" target="XMLvKD6NTCS2bfs8ey_3-20" edge="1">
          <mxGeometry relative="1" as="geometry"/>
        </mxCell>
        <mxCell id="XMLvKD6NTCS2bfs8ey_3-46" value="&lt;h1&gt;Добавить трассу&lt;/h1&gt;&lt;p&gt;Установка опорных точек на коорд. плоскости и их редактирование:&lt;/p&gt;&lt;p&gt;Выбор эшелона высот, перемещение, удаление&lt;/p&gt;" style="text;html=1;strokeColor=none;fillColor=none;spacing=5;spacingTop=-20;whiteSpace=wrap;overflow=hidden;rounded=0;" parent="1" vertex="1">
          <mxGeometry x="10" y="220" width="190" height="270" as="geometry"/>
        </mxCell>
        <mxCell id="XMLvKD6NTCS2bfs8ey_3-53" style="edgeStyle=orthogonalEdgeStyle;rounded=0;orthogonalLoop=1;jettySize=auto;html=1;" parent="1" source="XMLvKD6NTCS2bfs8ey_3-49" target="XMLvKD6NTCS2bfs8ey_3-24" edge="1">
          <mxGeometry relative="1" as="geometry">
            <Array as="points">
              <mxPoint x="105" y="550"/>
            </Array>
          </mxGeometry>
        </mxCell>
        <mxCell id="XMLvKD6NTCS2bfs8ey_3-49" value="&lt;h1&gt;Летательный аппарат&lt;/h1&gt;&lt;p&gt;Выбор принадлежности. Выбор модели. Выбор численности&lt;/p&gt;" style="text;html=1;strokeColor=none;fillColor=none;spacing=5;spacingTop=-20;whiteSpace=wrap;overflow=hidden;rounded=0;" parent="1" vertex="1">
          <mxGeometry x="10" y="600" width="190" height="170" as="geometry"/>
        </mxCell>
        <mxCell id="XMLvKD6NTCS2bfs8ey_3-50" value="Выбор построения" style="rounded=0;whiteSpace=wrap;html=1;" parent="1" vertex="1">
          <mxGeometry x="270" y="660" width="120" height="60" as="geometry"/>
        </mxCell>
        <mxCell id="aEJHKp-Uwna1abQGy5DF-1" value="Воздушная обстановка" style="rounded=0;whiteSpace=wrap;html=1;" vertex="1" parent="1">
          <mxGeometry x="3834" y="198.86" width="120" height="60" as="geometry"/>
        </mxCell>
        <mxCell id="aEJHKp-Uwna1abQGy5DF-2" value="Наземная обстановка" style="rounded=0;whiteSpace=wrap;html=1;" vertex="1" parent="1">
          <mxGeometry x="4804" y="218.86" width="120" height="60" as="geometry"/>
        </mxCell>
        <mxCell id="aEJHKp-Uwna1abQGy5DF-3" style="edgeStyle=orthogonalEdgeStyle;rounded=0;orthogonalLoop=1;jettySize=auto;html=1;entryX=0.5;entryY=0;entryDx=0;entryDy=0;exitX=0;exitY=0.5;exitDx=0;exitDy=0;" edge="1" parent="1" target="aEJHKp-Uwna1abQGy5DF-1" source="XMLvKD6NTCS2bfs8ey_3-11">
          <mxGeometry relative="1" as="geometry">
            <mxPoint x="4274" y="178.86" as="sourcePoint"/>
          </mxGeometry>
        </mxCell>
        <mxCell id="aEJHKp-Uwna1abQGy5DF-4" style="edgeStyle=orthogonalEdgeStyle;rounded=0;orthogonalLoop=1;jettySize=auto;html=1;entryX=0.5;entryY=0;entryDx=0;entryDy=0;exitX=1;exitY=0.5;exitDx=0;exitDy=0;" edge="1" parent="1" target="aEJHKp-Uwna1abQGy5DF-2" source="XMLvKD6NTCS2bfs8ey_3-11">
          <mxGeometry relative="1" as="geometry">
            <mxPoint x="4434" y="178.86" as="sourcePoint"/>
          </mxGeometry>
        </mxCell>
      </root>
    </mxGraphModel>
  </diagram>
</mxfile>
